<svg version="1.2" xmlns="http://www.w3.org/2000/svg" viewBox="0 0 1571 1587" width="1571" height="1587">

    <style>
        .s0 {
            fill: #ee3436
        }
    </style>
    <g id="Layer">
        <path id="Layer" class="s0"
            d="m681 885.5h222.5v690.4c0 0-535.9 114.7-812.3-420.5h255.1c0 0 112.3 176.5 335.9 194.5v-464.4z" />
        <path id="Layer" class="s0"
            d="m833.8 0.5c622.4 45 715.6 624.1 715.6 624.1h-1296.4c-101.1 199 43.8 468.9 43.8 468.9h-241.5c-144.9-398.1 43.8-699.4 43.8-699.4h1089.7c-365.1-362.1-742.6-57.4-742.6-57.4h-294.3c210.1-362.1 681.9-336.2 681.9-336.2z" />
        <path id="Layer" class="s0"
            d="m1346.1 877.6h224.7c-96.6 597.1-597.7 689.3-597.7 689.3v-229.4c338.2-115.8 373-459.9 373-459.9z" />
        <path id="Layer" class="s0"
            d="m678.8 755c0-62.9 50.5-113.5 112.3-113.5c61.8 0 112.4 50.6 112.4 113.5c0 63-50.6 112.5-112.4 112.5c-61.8 0-112.3-49.5-112.3-112.5z" />
    </g>
</svg>